# Blender 3.6.0
# www.blender.org
mtllib turret.mtl
o Axis.001
v 0.625000 0.375000 2.497484
v 0.625000 0.625000 2.497484
v 0.625000 0.375000 1.497484
v 0.625000 0.625000 1.497484
v 0.375000 0.625000 2.497484
v 0.375000 0.375000 2.497484
v 0.375000 0.625000 1.497484
v 0.375000 0.375000 1.497484
vn -0.0000 1.0000 -0.0000
vn 1.0000 -0.0000 -0.0000
vn -0.0000 -1.0000 -0.0000
vn -1.0000 -0.0000 -0.0000
vn -0.0000 -0.0000 1.0000
vn -0.0000 -0.0000 -1.0000
vt 0.375000 0.000000
vt 0.625000 0.000000
vt 0.625000 1.000000
vt 0.375000 1.000000
vt 0.375000 0.375000
vt 0.625000 0.375000
vt 0.625000 0.625000
vt 0.375000 0.625000
s 0
usemtl m_c1b77444-4f12-4298-767b-cec30054b6fe
f 4/1/1 7/2/1 5/3/1 2/4/1
f 3/1/2 4/2/2 2/3/2 1/4/2
f 8/1/3 3/2/3 1/3/3 6/4/3
f 7/1/4 8/2/4 6/3/4 5/4/4
usemtl m_322ec8cc-a870-f7af-34d3-ac2748c42422
f 6/5/5 1/6/5 2/7/5 5/8/5
f 7/5/6 4/6/6 3/7/6 8/8/6
o cube.014
v 0.875000 1.000000 2.497484
v 0.875000 1.000000 2.434984
v 0.875000 0.875000 2.497484
v 0.875000 0.875000 2.434984
v 0.125000 1.000000 2.434984
v 0.125000 1.000000 2.497484
v 0.125000 0.875000 2.434984
v 0.125000 0.875000 2.497484
vn -0.0000 -0.0000 -1.0000
vn 1.0000 -0.0000 -0.0000
vn -0.0000 -0.0000 1.0000
vn -1.0000 -0.0000 -0.0000
vn -0.0000 1.0000 -0.0000
vn -0.0000 -1.0000 -0.0000
vt 0.625000 0.343750
vt 0.812500 0.343750
vt 0.812500 0.375000
vt 0.625000 0.375000
vt 0.640625 0.421875
vt 0.656250 0.421875
vt 0.656250 0.453125
vt 0.640625 0.453125
vt 0.031250 0.437500
vt 0.218750 0.437500
vt 0.218750 0.468750
vt 0.031250 0.468750
vt 0.718750 0.421875
vt 0.734375 0.421875
vt 0.734375 0.453125
vt 0.718750 0.453125
vt 0.031250 0.453125
vt 0.218750 0.453125
s 0
usemtl m_2228ed7a-7554-9710-16f5-8a14b279b348
f 12/9/7 15/10/7 13/11/7 10/12/7
f 11/13/8 12/14/8 10/15/8 9/16/8
f 16/17/9 11/18/9 9/19/9 14/20/9
f 15/21/10 16/22/10 14/23/10 13/24/10
f 14/25/11 9/26/11 10/19/11 13/20/11
f 15/17/12 12/18/12 11/26/12 16/25/12
o cube.015
v 1.000000 1.000000 2.497484
v 1.000000 1.000000 2.434984
v 1.000000 0.000000 2.497484
v 1.000000 0.000000 2.434984
v 0.875000 1.000000 2.434984
v 0.875000 1.000000 2.497484
v 0.875000 0.000000 2.434984
v 0.875000 0.000000 2.497484
vn -0.0000 -0.0000 -1.0000
vn 1.0000 -0.0000 -0.0000
vn -0.0000 -0.0000 1.0000
vn -1.0000 -0.0000 -0.0000
vn -0.0000 1.0000 -0.0000
vn -0.0000 -1.0000 -0.0000
vt 0.703125 0.281250
vt 0.734375 0.281250
vt 0.734375 0.531250
vt 0.703125 0.531250
vt 0.234375 0.218750
vt 0.250000 0.218750
vt 0.250000 0.468750
vt 0.234375 0.468750
vt 0.218750 0.218750
vt 0.218750 0.468750
vt 0.250000 0.234375
vt 0.218750 0.234375
vt 0.218750 0.453125
vt 0.250000 0.453125
s 0
usemtl m_2228ed7a-7554-9710-16f5-8a14b279b348
f 20/27/13 23/28/13 21/29/13 18/30/13
f 19/31/14 20/32/14 18/33/14 17/34/14
f 24/35/15 19/32/15 17/33/15 22/36/15
f 23/35/16 24/31/16 22/34/16 21/36/16
f 22/35/17 17/32/17 18/37/17 21/38/17
f 23/39/18 20/40/18 19/33/18 24/36/18
o cube.016
v 0.125000 1.000000 2.497484
v 0.125000 1.000000 2.434984
v 0.125000 0.000000 2.497484
v 0.125000 0.000000 2.434984
v 0.000000 1.000000 2.434984
v 0.000000 1.000000 2.497484
v 0.000000 0.000000 2.434984
v 0.000000 0.000000 2.497484
vn -0.0000 -0.0000 -1.0000
vn 1.0000 -0.0000 -0.0000
vn -0.0000 -0.0000 1.0000
vn -1.0000 -0.0000 -0.0000
vn -0.0000 1.0000 -0.0000
vn -0.0000 -1.0000 -0.0000
vt 0.484375 0.187500
vt 0.515625 0.187500
vt 0.515625 0.437500
vt 0.484375 0.437500
vt 0.015625 0.218750
vt 0.031250 0.218750
vt 0.031250 0.468750
vt 0.015625 0.468750
vt 0.000000 0.218750
vt 0.000000 0.468750
vt 0.031250 0.234375
vt 0.000000 0.234375
vt 0.031250 0.484375
vt 0.000000 0.484375
s 0
usemtl m_2228ed7a-7554-9710-16f5-8a14b279b348
f 28/41/19 31/42/19 29/43/19 26/44/19
f 27/45/20 28/46/20 26/47/20 25/48/20
f 32/49/21 27/46/21 25/47/21 30/50/21
f 31/49/22 32/45/22 30/48/22 29/50/22
f 30/49/23 25/46/23 26/51/23 29/52/23
f 31/50/24 28/47/24 27/53/24 32/54/24
o cube.017
v 1.000000 1.000000 2.434984
v 1.000000 1.000000 1.497484
v 1.000000 0.000000 2.434984
v 1.000000 0.000000 1.497484
v 0.000000 1.000000 1.497484
v 0.000000 1.000000 2.434984
v 0.000000 0.000000 1.497484
v 0.000000 0.000000 2.434984
vn -0.0000 -0.0000 -1.0000
vn 1.0000 -0.0000 -0.0000
vn -0.0000 -0.0000 1.0000
vn -1.0000 -0.0000 -0.0000
vn -0.0000 1.0000 -0.0000
vn -0.0000 -1.0000 -0.0000
vt 0.000000 0.750000
vt 0.250000 0.750000
vt 0.250000 1.000000
vt 0.000000 1.000000
vt 0.265625 0.750000
vt 0.500000 0.750000
vt 0.500000 1.000000
vt 0.265625 1.000000
vt 0.000000 0.218750
vt 0.250000 0.218750
vt 0.250000 0.468750
vt 0.000000 0.468750
vt 0.484375 0.750000
vt 0.484375 1.000000
vt 0.750000 0.984375
vt 0.500000 0.984375
vt 0.750000 0.750000
s 0
usemtl m_2228ed7a-7554-9710-16f5-8a14b279b348
f 36/55/25 39/56/25 37/57/25 34/58/25
f 35/59/26 36/60/26 34/61/26 33/62/26
f 40/63/27 35/64/27 33/65/27 38/66/27
f 39/56/28 40/67/28 38/68/28 37/57/28
f 38/69/29 33/70/29 34/60/29 37/71/29
f 39/71/30 36/60/30 35/70/30 40/69/30
o cube.018
v 0.875000 0.125000 2.497484
v 0.875000 0.125000 2.434984
v 0.875000 0.000000 2.497484
v 0.875000 0.000000 2.434984
v 0.125000 0.125000 2.434984
v 0.125000 0.125000 2.497484
v 0.125000 0.000000 2.434984
v 0.125000 0.000000 2.497484
vn -0.0000 -0.0000 -1.0000
vn 1.0000 -0.0000 -0.0000
vn -0.0000 -0.0000 1.0000
vn -1.0000 -0.0000 -0.0000
vn -0.0000 1.0000 -0.0000
vn -0.0000 -1.0000 -0.0000
vt 0.531250 0.250000
vt 0.718750 0.250000
vt 0.718750 0.281250
vt 0.531250 0.281250
vt 0.515625 0.390625
vt 0.531250 0.390625
vt 0.531250 0.421875
vt 0.515625 0.421875
vt 0.031250 0.218750
vt 0.218750 0.218750
vt 0.218750 0.250000
vt 0.031250 0.250000
vt 0.531250 0.406250
vt 0.546875 0.406250
vt 0.546875 0.437500
vt 0.531250 0.437500
vt 0.031250 0.234375
vt 0.218750 0.234375
s 0
usemtl m_2228ed7a-7554-9710-16f5-8a14b279b348
f 44/72/31 47/73/31 45/74/31 42/75/31
f 43/76/32 44/77/32 42/78/32 41/79/32
f 48/80/33 43/81/33 41/82/33 46/83/33
f 47/84/34 48/85/34 46/86/34 45/87/34
f 46/88/35 41/89/35 42/82/35 45/83/35
f 47/80/36 44/81/36 43/89/36 48/88/36
o cube.019
v 0.812500 0.812500 1.497484
v 0.812500 0.812500 1.184984
v 0.812500 0.187500 1.497484
v 0.812500 0.187500 1.184984
v 0.187500 0.812500 1.184984
v 0.187500 0.812500 1.497484
v 0.187500 0.187500 1.184984
v 0.187500 0.187500 1.497484
vn -0.0000 -0.0000 -1.0000
vn 1.0000 -0.0000 -0.0000
vn -0.0000 -0.0000 1.0000
vn -1.0000 -0.0000 -0.0000
vn -0.0000 1.0000 -0.0000
vn -0.0000 -1.0000 -0.0000
vt 0.000000 0.593750
vt 0.156250 0.593750
vt 0.156250 0.750000
vt 0.000000 0.750000
vt 0.578125 0.671875
vt 0.578125 0.750000
vt 0.421875 0.750000
vt 0.421875 0.671875
s 0
usemtl m_2228ed7a-7554-9710-16f5-8a14b279b348
f 52/90/37 55/91/37 53/92/37 50/93/37
f 51/94/38 52/95/38 50/96/38 49/97/38
f 56/90/39 51/91/39 49/92/39 54/93/39
f 55/94/40 56/95/40 54/96/40 53/97/40
f 54/95/41 49/96/41 50/97/41 53/94/41
f 55/94/42 52/97/42 51/96/42 56/95/42
o cube.020
v 0.656250 0.656250 -1.252516
v 0.656250 0.656250 -1.502516
v 0.656250 0.343750 -1.252516
v 0.656250 0.343750 -1.502516
v 0.343750 0.656250 -1.502516
v 0.343750 0.656250 -1.252516
v 0.343750 0.343750 -1.502516
v 0.343750 0.343750 -1.252516
vn -0.0000 -0.0000 -1.0000
vn 1.0000 -0.0000 -0.0000
vn -0.0000 -0.0000 1.0000
vn -1.0000 -0.0000 -0.0000
vn -0.0000 1.0000 -0.0000
vn -0.0000 -1.0000 -0.0000
vt 0.578125 0.671875
vt 0.656250 0.671875
vt 0.656250 0.750000
vt 0.578125 0.750000
vt 0.906250 1.000000
vt 0.906250 0.937500
vt 0.984375 0.937500
vt 0.984375 1.000000
vt 0.734375 0.671875
vt 0.734375 0.750000
s 0
usemtl m_2228ed7a-7554-9710-16f5-8a14b279b348
f 60/98/43 63/99/43 61/100/43 58/101/43
f 59/102/44 60/103/44 58/104/44 57/105/44
f 64/99/45 59/106/45 57/107/45 62/100/45
f 63/104/46 64/105/46 62/102/46 61/103/46
f 62/105/47 57/102/47 58/103/47 61/104/47
f 63/104/48 60/103/48 59/102/48 64/105/48
o cube.021
v 0.625000 0.625000 0.497484
v 0.625000 0.625000 -1.252516
v 0.625000 0.375000 0.497484
v 0.625000 0.375000 -1.252516
v 0.375000 0.625000 -1.252516
v 0.375000 0.625000 0.497484
v 0.375000 0.375000 -1.252516
v 0.375000 0.375000 0.497484
vn -0.0000 -0.0000 -1.0000
vn 1.0000 -0.0000 -0.0000
vn -0.0000 -0.0000 1.0000
vn -1.0000 -0.0000 -0.0000
vn -0.0000 1.0000 -0.0000
vn -0.0000 -1.0000 -0.0000
vt 0.718750 0.062500
vt 0.781250 0.062500
vt 0.781250 0.125000
vt 0.718750 0.125000
vt 0.156250 0.593750
vt 0.593750 0.593750
vt 0.593750 0.656250
vt 0.156250 0.656250
vt 0.843750 0.062500
vt 0.843750 0.125000
vt 0.000000 0.593750
vt 0.000000 0.531250
vt 0.437500 0.531250
vt 0.437500 0.593750
s 0
usemtl m_2228ed7a-7554-9710-16f5-8a14b279b348
f 68/108/49 71/109/49 69/110/49 66/111/49
f 67/112/50 68/113/50 66/114/50 65/115/50
f 72/109/51 67/116/51 65/117/51 70/110/51
f 71/114/52 72/115/52 70/112/52 69/113/52
f 70/118/53 65/119/53 66/120/53 69/121/53
f 71/119/54 68/118/54 67/121/54 72/120/54
o cube.022
v 0.687500 0.687500 1.184984
v 0.687500 0.687500 0.497484
v 0.687500 0.312500 1.184984
v 0.687500 0.312500 0.497484
v 0.312500 0.687500 0.497484
v 0.312500 0.687500 1.184984
v 0.312500 0.312500 0.497484
v 0.312500 0.312500 1.184984
vn -0.0000 -0.0000 -1.0000
vn 1.0000 -0.0000 -0.0000
vn -0.0000 -0.0000 1.0000
vn -1.0000 -0.0000 -0.0000
vn -0.0000 1.0000 -0.0000
vn -0.0000 -1.0000 -0.0000
vt 0.328125 0.656250
vt 0.421875 0.656250
vt 0.421875 0.750000
vt 0.328125 0.750000
vt 0.156250 0.656250
vt 0.156250 0.750000
vt 0.609375 0.281250
vt 0.703125 0.281250
vt 0.703125 0.375000
vt 0.609375 0.375000
vt 0.906250 1.000000
vt 0.812500 1.000000
vt 0.812500 0.828125
vt 0.906250 0.828125
s 0
usemtl m_2228ed7a-7554-9710-16f5-8a14b279b348
f 76/122/55 79/123/55 77/124/55 74/125/55
f 75/126/56 76/122/56 74/125/56 73/127/56
f 80/128/57 75/129/57 73/130/57 78/131/57
f 79/126/58 80/122/58 78/125/58 77/127/58
f 78/132/59 73/133/59 74/134/59 77/135/59
f 79/135/60 76/134/60 75/133/60 80/132/60
o cube.023
v 0.875000 0.625000 1.497484
v 0.875000 0.625000 0.622484
v 0.875000 0.375000 1.497484
v 0.875000 0.375000 0.622484
v 0.625000 0.625000 0.622484
v 0.625000 0.625000 1.497484
v 0.625000 0.375000 0.622484
v 0.625000 0.375000 1.497484
vn -0.0000 -0.0000 -1.0000
vn 1.0000 -0.0000 -0.0000
vn -0.0000 -0.0000 1.0000
vn -1.0000 -0.0000 -0.0000
vn -0.0000 1.0000 -0.0000
vn -0.0000 -1.0000 -0.0000
vt 0.750000 0.718750
vt 0.812500 0.718750
vt 0.812500 0.781250
vt 0.750000 0.781250
vt 0.000000 0.468750
vt 0.218750 0.468750
vt 0.218750 0.531250
vt 0.000000 0.531250
vt 0.140625 0.093750
vt 0.203125 0.093750
vt 0.203125 0.156250
vt 0.140625 0.156250
vt 0.687500 0.468750
vt 0.906250 0.468750
vt 0.906250 0.531250
vt 0.687500 0.531250
s 0
usemtl m_2228ed7a-7554-9710-16f5-8a14b279b348
f 84/136/61 87/137/61 85/138/61 82/139/61
f 83/140/62 84/141/62 82/142/62 81/143/62
f 88/144/63 83/145/63 81/146/63 86/147/63
f 87/148/64 88/149/64 86/150/64 85/151/64
f 86/143/65 81/140/65 82/141/65 85/142/65
f 87/142/66 84/141/66 83/140/66 88/143/66
o cube.024
v 0.375000 0.625000 1.497484
v 0.375000 0.625000 0.622484
v 0.375000 0.375000 1.497484
v 0.375000 0.375000 0.622484
v 0.125000 0.625000 0.622484
v 0.125000 0.625000 1.497484
v 0.125000 0.375000 0.622484
v 0.125000 0.375000 1.497484
vn -0.0000 -0.0000 -1.0000
vn 1.0000 -0.0000 -0.0000
vn -0.0000 -0.0000 1.0000
vn -1.0000 -0.0000 -0.0000
vn -0.0000 1.0000 -0.0000
vn -0.0000 -1.0000 -0.0000
vt 0.750000 0.718750
vt 0.812500 0.718750
vt 0.812500 0.781250
vt 0.750000 0.781250
vt 0.703125 0.406250
vt 0.921875 0.406250
vt 0.921875 0.468750
vt 0.703125 0.468750
vt 0.937500 0.156250
vt 1.000000 0.156250
vt 1.000000 0.218750
vt 0.937500 0.218750
vt 0.000000 0.468750
vt 0.218750 0.468750
vt 0.218750 0.531250
vt 0.000000 0.531250
s 0
usemtl m_2228ed7a-7554-9710-16f5-8a14b279b348
f 92/152/67 95/153/67 93/154/67 90/155/67
f 91/156/68 92/157/68 90/158/68 89/159/68
f 96/160/69 91/161/69 89/162/69 94/163/69
f 95/164/70 96/165/70 94/166/70 93/167/70
f 94/167/71 89/164/71 90/165/71 93/166/71
f 95/166/72 92/165/72 91/164/72 96/167/72
